<svg version="1.1" xmlns="http://www.w3.org/2000/svg" viewBox="0 0 4000 4000" width="4000" height="4000">
    <defs>
        <style type="text/css">
            @import url('https://fonts.googleapis.com/css2?family=Outfit:wght@600&amp;display=swap');
            .s0 { fill: #00c4b4; } 
            .s1 { fill: #006058; } 
            .logo-text { 
                fill: #00c4b4; 
                font-family: 'Outfit', 'Outfit SemiBold', sans-serif; 
                font-size: 680px; 
                font-weight: 600;
                text-anchor: middle;
            }
        </style>
    </defs>
    <!-- Centered Logo Group -->
    <g id="Logo" transform="translate(578, 300)">
        <path id="Path_1" class="s0" d="m1421.18 282.44l-144.14 107.46 1.59 817.38c-306.66 2.38-321.3 3.05-352.57 10.1-18.61 4.19-46.66 11.79-62.33 16.9-15.67 5.11-47.72 18.73-71.22 30.27-25.34 12.44-57.96 32.41-80.13 49.04-20.57 15.43-51.02 42.42-67.67 59.97-16.65 17.55-39.4 44.61-50.55 60.14-11.16 15.52-29.25 45.85-40.22 67.39-10.96 21.55-25.35 56.01-31.97 76.57-6.62 20.57-14.92 51.82-18.43 69.45-4.73 23.69-6.4 48.77-6.4 96.16 0 47.38 1.67 72.46 6.4 96.15 3.51 17.63 11.81 48.88 18.43 69.45 6.62 20.56 21.01 55.02 31.97 76.57 10.97 21.54 29.06 51.87 40.22 67.39 11.15 15.53 33.9 42.59 50.55 60.14 16.65 17.55 47.1 44.54 67.67 59.97 22.17 16.63 54.79 36.6 80.13 49.04 23.5 11.54 55.55 25.16 71.22 30.27 15.67 5.11 43.72 12.71 62.33 16.9 31.27 7.05 45.91 7.72 193.2 8.86l159.37 1.24 1.78 391.27 286.71-214.99-0.02-817.32c306.66-2.38 321.3-3.05 352.57-10.1 18.61-4.19 46.65-11.79 62.32-16.9 15.67-5.11 47.72-18.73 71.23-30.27 25.34-12.44 57.96-32.41 80.13-49.04 20.57-15.43 51.02-42.42 67.67-59.97 16.64-17.55 39.39-44.61 50.55-60.14 11.15-15.52 29.25-45.85 40.22-67.39 10.96-21.55 25.35-56.01 31.97-76.57 6.62-20.57 14.91-51.82 18.43-69.45 4.73-23.69 6.39-48.77 6.39-96.15 0-47.39-1.66-72.47-6.39-96.16-3.52-17.63-11.81-48.88-18.43-69.45-6.62-20.56-21.01-55.02-31.97-76.57-10.97-21.54-29.07-51.87-40.22-67.39-11.16-15.53-33.91-42.59-50.55-60.14-16.65-17.55-47.1-44.54-67.67-59.97-22.17-16.63-54.79-36.6-80.13-49.04-23.51-11.54-55.56-25.16-71.23-30.27-15.67-5.11-43.71-12.71-62.32-16.9-31.27-7.05-45.91-7.72-193.2-8.86l-159.37-1.24-1.78-391.27z"/>
        <path id="Path_2" class="s1" d="m1690.85 853.56l-123.75 1.15v495.03c191.82 1.38 257.93 1.48 270.66 1.12 13.17-0.38 35.43-4.56 51.64-9.7 15.67-4.98 38.89-15.1 51.61-22.49 12.72-7.4 35.16-25.48 49.86-40.18 14.71-14.71 32.79-37.15 40.18-49.86 7.4-12.72 17.71-35.95 22.93-51.62 8.31-24.99 9.47-34.16 9.47-74.78 0-40.63-1.16-49.8-9.47-74.79-5.22-15.67-15.53-38.9-22.93-51.62-7.39-12.71-25.47-35.15-40.18-49.86-14.7-14.7-37.14-32.78-49.86-40.18-12.72-7.39-35.54-17.41-50.72-22.26-15.18-4.84-38.42-9.32-51.64-9.96-13.22-0.63-79.73-0.63-147.8 0zm-709.59 643.69c-11.75 2.71-30.99 8.6-42.74 13.08-11.75 4.48-32.58 15.65-46.3 24.81-13.71 9.17-33.74 26.32-44.51 38.11-10.77 11.8-25.64 31.64-33.04 44.09-7.39 12.46-17.71 35.47-22.92 51.14-8.32 25-9.48 34.16-9.48 74.79 0 40.62 1.16 49.79 9.48 74.78 5.21 15.67 15.53 38.9 22.92 51.62 7.4 12.71 25.48 35.15 40.19 49.86 14.7 14.7 37.14 32.78 49.86 40.18 12.71 7.39 35.94 17.51 51.61 22.49 16.2 5.14 38.47 9.32 51.64 9.7 12.73 0.36 78.84 0.26 146.9-0.23l123.76-0.89v-495.03c-178.02-0.04-240.12-0.81-252.85-1.74-13.4-0.98-32.16 0.39-44.52 3.24z"/>
    </g>
    <!-- Balanced text positioning -->
    <text x="2000" y="3600" class="logo-text">DockPort</text>
</svg>
